# Blender 3.1.1
# www.blender.org
mtllib cylinder2.mtl
o 円柱
v 0.000000 -0.053000 -0.053000
v 0.000000 0.053000 -0.053000
v 0.010340 -0.053000 -0.051982
v 0.010340 0.053000 -0.051982
v 0.020282 -0.053000 -0.048966
v 0.020282 0.053000 -0.048966
v 0.029445 -0.053000 -0.044068
v 0.029445 0.053000 -0.044068
v 0.037477 -0.053000 -0.037477
v 0.037477 0.053000 -0.037477
v 0.044068 -0.053000 -0.029445
v 0.044068 0.053000 -0.029445
v 0.048966 -0.053000 -0.020282
v 0.048966 0.053000 -0.020282
v 0.051982 -0.053000 -0.010340
v 0.051982 0.053000 -0.010340
v 0.053000 -0.053000 0.000000
v 0.053000 0.053000 0.000000
v 0.051982 -0.053000 0.010340
v 0.051982 0.053000 0.010340
v 0.048966 -0.053000 0.020282
v 0.048966 0.053000 0.020282
v 0.044068 -0.053000 0.029445
v 0.044068 0.053000 0.029445
v 0.037477 -0.053000 0.037477
v 0.037477 0.053000 0.037477
v 0.029445 -0.053000 0.044068
v 0.029445 0.053000 0.044068
v 0.020282 -0.053000 0.048966
v 0.020282 0.053000 0.048966
v 0.010340 -0.053000 0.051982
v 0.010340 0.053000 0.051982
v -0.000000 -0.053000 0.053000
v -0.000000 0.053000 0.053000
v -0.010340 -0.053000 0.051982
v -0.010340 0.053000 0.051982
v -0.020282 -0.053000 0.048966
v -0.020282 0.053000 0.048966
v -0.029445 -0.053000 0.044068
v -0.029445 0.053000 0.044068
v -0.037477 -0.053000 0.037477
v -0.037477 0.053000 0.037477
v -0.044068 -0.053000 0.029445
v -0.044068 0.053000 0.029445
v -0.048966 -0.053000 0.020282
v -0.048966 0.053000 0.020282
v -0.051982 -0.053000 0.010340
v -0.051982 0.053000 0.010340
v -0.053000 -0.053000 -0.000000
v -0.053000 0.053000 -0.000000
v -0.051982 -0.053000 -0.010340
v -0.051982 0.053000 -0.010340
v -0.048966 -0.053000 -0.020282
v -0.048966 0.053000 -0.020282
v -0.044068 -0.053000 -0.029445
v -0.044068 0.053000 -0.029445
v -0.037477 -0.053000 -0.037477
v -0.037477 0.053000 -0.037477
v -0.029445 -0.053000 -0.044068
v -0.029445 0.053000 -0.044068
v -0.020282 -0.053000 -0.048966
v -0.020282 0.053000 -0.048966
v -0.010340 -0.053000 -0.051982
v -0.010340 0.053000 -0.051982
v -0.000000 -0.053000 -0.047674
v -0.000000 0.053000 -0.047674
v 0.009301 -0.053000 -0.046758
v 0.009301 0.053000 -0.046758
v 0.018244 -0.053000 -0.044045
v 0.018244 0.053000 -0.044045
v 0.026486 -0.053000 -0.039640
v 0.026486 0.053000 -0.039640
v 0.033711 -0.053000 -0.033711
v 0.033711 0.053000 -0.033711
v 0.039640 -0.053000 -0.026486
v 0.039640 0.053000 -0.026486
v 0.044045 -0.053000 -0.018244
v 0.044045 0.053000 -0.018244
v 0.046758 -0.053000 -0.009301
v 0.046758 0.053000 -0.009301
v 0.047674 -0.053000 0.000000
v 0.047674 0.053000 0.000000
v 0.046758 -0.053000 0.009301
v 0.046758 0.053000 0.009301
v 0.044045 -0.053000 0.018244
v 0.044045 0.053000 0.018244
v 0.039640 -0.053000 0.026486
v 0.039640 0.053000 0.026486
v 0.033711 -0.053000 0.033711
v 0.033711 0.053000 0.033711
v 0.026486 -0.053000 0.039640
v 0.026486 0.053000 0.039640
v 0.018244 -0.053000 0.044045
v 0.018244 0.053000 0.044045
v 0.009301 -0.053000 0.046758
v 0.009301 0.053000 0.046758
v -0.000000 -0.053000 0.047674
v -0.000000 0.053000 0.047674
v -0.009301 -0.053000 0.046758
v -0.009301 0.053000 0.046758
v -0.018244 -0.053000 0.044045
v -0.018244 0.053000 0.044045
v -0.026486 -0.053000 0.039640
v -0.026486 0.053000 0.039640
v -0.033711 -0.053000 0.033711
v -0.033711 0.053000 0.033711
v -0.039640 -0.053000 0.026486
v -0.039640 0.053000 0.026486
v -0.044045 -0.053000 0.018244
v -0.044045 0.053000 0.018244
v -0.046758 -0.053000 0.009301
v -0.046758 0.053000 0.009301
v -0.047674 -0.053000 -0.000000
v -0.047674 0.053000 -0.000000
v -0.046758 -0.053000 -0.009301
v -0.046758 0.053000 -0.009301
v -0.044045 -0.053000 -0.018244
v -0.044045 0.053000 -0.018244
v -0.039640 -0.053000 -0.026486
v -0.039640 0.053000 -0.026486
v -0.033711 -0.053000 -0.033711
v -0.033711 0.053000 -0.033711
v -0.026486 -0.053000 -0.039640
v -0.026486 0.053000 -0.039640
v -0.018244 -0.053000 -0.044045
v -0.018244 0.053000 -0.044045
v -0.009301 -0.053000 -0.046758
v -0.009301 0.053000 -0.046758
vn -0.0000 -0.0000 -1.0000
vn 0.1951 -0.0000 -0.9808
vn 0.3827 -0.0000 -0.9239
vn 0.5556 -0.0000 -0.8315
vn 0.7071 -0.0000 -0.7071
vn 0.8315 -0.0000 -0.5556
vn 0.9239 -0.0000 -0.3827
vn 0.9808 -0.0000 -0.1951
vn 1.0000 -0.0000 -0.0000
vn 0.9808 -0.0000 0.1951
vn 0.9239 -0.0000 0.3827
vn 0.8315 -0.0000 0.5556
vn 0.7071 -0.0000 0.7071
vn 0.5556 -0.0000 0.8315
vn 0.3827 -0.0000 0.9239
vn 0.1951 -0.0000 0.9808
vn -0.0000 -0.0000 1.0000
vn -0.1951 -0.0000 0.9808
vn -0.3827 -0.0000 0.9239
vn -0.5556 -0.0000 0.8315
vn -0.7071 -0.0000 0.7071
vn -0.8315 -0.0000 0.5556
vn -0.9239 -0.0000 0.3827
vn -0.9808 -0.0000 0.1951
vn -1.0000 -0.0000 -0.0000
vn -0.9808 -0.0000 -0.1951
vn -0.9239 -0.0000 -0.3827
vn -0.8315 -0.0000 -0.5556
vn -0.7071 -0.0000 -0.7071
vn -0.5556 -0.0000 -0.8315
vn -0.3827 -0.0000 -0.9239
vn -0.1951 -0.0000 -0.9808
vn -0.0000 -1.0000 -0.0000
vn -0.0000 1.0000 -0.0000
vt 1.000000 0.000000
vt 0.000000 0.000000
vt 1.000000 1.000000
vt 0.000000 1.000000
vt 0.968750 0.000000
vt 0.968750 1.000000
vt 0.937500 0.000000
vt 0.937500 1.000000
vt 0.906250 0.000000
vt 0.906250 1.000000
vt 0.875000 0.000000
vt 0.875000 1.000000
vt 0.843750 0.000000
vt 0.843750 1.000000
vt 0.812500 0.000000
vt 0.812500 1.000000
vt 0.781250 0.000000
vt 0.781250 1.000000
vt 0.750000 0.000000
vt 0.750000 1.000000
vt 0.718750 0.000000
vt 0.718750 1.000000
vt 0.687500 0.000000
vt 0.687500 1.000000
vt 0.656250 0.000000
vt 0.656250 1.000000
vt 0.625000 0.000000
vt 0.625000 1.000000
vt 0.593750 0.000000
vt 0.593750 1.000000
vt 0.562500 0.000000
vt 0.562500 1.000000
vt 0.531250 0.000000
vt 0.531250 1.000000
vt 0.500000 0.000000
vt 0.500000 1.000000
vt 0.468750 0.000000
vt 0.468750 1.000000
vt 0.437500 0.000000
vt 0.437500 1.000000
vt 0.406250 0.000000
vt 0.406250 1.000000
vt 0.375000 0.000000
vt 0.375000 1.000000
vt 0.343750 0.000000
vt 0.343750 1.000000
vt 0.312500 0.000000
vt 0.312500 1.000000
vt 0.281250 0.000000
vt 0.281250 1.000000
vt 0.250000 0.000000
vt 0.250000 1.000000
vt 0.218750 0.000000
vt 0.218750 1.000000
vt 0.187500 0.000000
vt 0.187500 1.000000
vt 0.156250 0.000000
vt 0.156250 1.000000
vt 0.125000 0.000000
vt 0.125000 1.000000
vt 0.093750 0.000000
vt 0.093750 1.000000
vt 0.062500 0.000000
vt 0.062500 1.000000
vt 0.031250 0.000000
vt 0.031250 1.000000
vt 1.000000 0.000000
vt 0.000000 0.000000
vt 1.000000 1.000000
vt 0.000000 1.000000
vt 0.968750 0.000000
vt 0.968750 1.000000
vt 0.937500 0.000000
vt 0.937500 1.000000
vt 0.906250 0.000000
vt 0.906250 1.000000
vt 0.875000 0.000000
vt 0.875000 1.000000
vt 0.843750 0.000000
vt 0.843750 1.000000
vt 0.812500 0.000000
vt 0.812500 1.000000
vt 0.781250 0.000000
vt 0.781250 1.000000
vt 0.750000 0.000000
vt 0.750000 1.000000
vt 0.718750 0.000000
vt 0.718750 1.000000
vt 0.687500 0.000000
vt 0.687500 1.000000
vt 0.656250 0.000000
vt 0.656250 1.000000
vt 0.625000 0.000000
vt 0.625000 1.000000
vt 0.593750 0.000000
vt 0.593750 1.000000
vt 0.562500 0.000000
vt 0.562500 1.000000
vt 0.531250 0.000000
vt 0.531250 1.000000
vt 0.500000 0.000000
vt 0.500000 1.000000
vt 0.468750 0.000000
vt 0.468750 1.000000
vt 0.437500 0.000000
vt 0.437500 1.000000
vt 0.406250 0.000000
vt 0.406250 1.000000
vt 0.375000 0.000000
vt 0.375000 1.000000
vt 0.343750 0.000000
vt 0.343750 1.000000
vt 0.312500 0.000000
vt 0.312500 1.000000
vt 0.281250 0.000000
vt 0.281250 1.000000
vt 0.250000 0.000000
vt 0.250000 1.000000
vt 0.218750 0.000000
vt 0.218750 1.000000
vt 0.187500 0.000000
vt 0.187500 1.000000
vt 0.156250 0.000000
vt 0.156250 1.000000
vt 0.125000 0.000000
vt 0.125000 1.000000
vt 0.093750 0.000000
vt 0.093750 1.000000
vt 0.062500 0.000000
vt 0.062500 1.000000
vt 0.031250 0.000000
vt 0.031250 1.000000
s 1
usemtl マテリアル
f 1/1/1 2/3/1 4/6/2 3/5/2
f 3/5/2 4/6/2 6/8/3 5/7/3
f 5/7/3 6/8/3 8/10/4 7/9/4
f 7/9/4 8/10/4 10/12/5 9/11/5
f 9/11/5 10/12/5 12/14/6 11/13/6
f 11/13/6 12/14/6 14/16/7 13/15/7
f 13/15/7 14/16/7 16/18/8 15/17/8
f 15/17/8 16/18/8 18/20/9 17/19/9
f 17/19/9 18/20/9 20/22/10 19/21/10
f 19/21/10 20/22/10 22/24/11 21/23/11
f 21/23/11 22/24/11 24/26/12 23/25/12
f 23/25/12 24/26/12 26/28/13 25/27/13
f 25/27/13 26/28/13 28/30/14 27/29/14
f 27/29/14 28/30/14 30/32/15 29/31/15
f 29/31/15 30/32/15 32/34/16 31/33/16
f 31/33/16 32/34/16 34/36/17 33/35/17
f 33/35/17 34/36/17 36/38/18 35/37/18
f 35/37/18 36/38/18 38/40/19 37/39/19
f 37/39/19 38/40/19 40/42/20 39/41/20
f 39/41/20 40/42/20 42/44/21 41/43/21
f 41/43/21 42/44/21 44/46/22 43/45/22
f 43/45/22 44/46/22 46/48/23 45/47/23
f 45/47/23 46/48/23 48/50/24 47/49/24
f 47/49/24 48/50/24 50/52/25 49/51/25
f 49/51/25 50/52/25 52/54/26 51/53/26
f 51/53/26 52/54/26 54/56/27 53/55/27
f 53/55/27 54/56/27 56/58/28 55/57/28
f 55/57/28 56/58/28 58/60/29 57/59/29
f 57/59/29 58/60/29 60/62/30 59/61/30
f 59/61/30 60/62/30 62/64/31 61/63/31
f 61/63/31 62/64/31 64/66/32 63/65/32
f 63/65/32 64/66/32 2/4/1 1/2/1
f 65/67/17 67/71/18 68/72/18 66/69/17
f 67/71/18 69/73/19 70/74/19 68/72/18
f 69/73/19 71/75/20 72/76/20 70/74/19
f 71/75/20 73/77/21 74/78/21 72/76/20
f 73/77/21 75/79/22 76/80/22 74/78/21
f 75/79/22 77/81/23 78/82/23 76/80/22
f 77/81/23 79/83/24 80/84/24 78/82/23
f 79/83/24 81/85/25 82/86/25 80/84/24
f 81/85/25 83/87/26 84/88/26 82/86/25
f 83/87/26 85/89/27 86/90/27 84/88/26
f 85/89/27 87/91/28 88/92/28 86/90/27
f 87/91/28 89/93/29 90/94/29 88/92/28
f 89/93/29 91/95/30 92/96/30 90/94/29
f 91/95/30 93/97/31 94/98/31 92/96/30
f 93/97/31 95/99/32 96/100/32 94/98/31
f 95/99/32 97/101/1 98/102/1 96/100/32
f 97/101/1 99/103/2 100/104/2 98/102/1
f 99/103/2 101/105/3 102/106/3 100/104/2
f 101/105/3 103/107/4 104/108/4 102/106/3
f 103/107/4 105/109/5 106/110/5 104/108/4
f 105/109/5 107/111/6 108/112/6 106/110/5
f 107/111/6 109/113/7 110/114/7 108/112/6
f 109/113/7 111/115/8 112/116/8 110/114/7
f 111/115/8 113/117/9 114/118/9 112/116/8
f 113/117/9 115/119/10 116/120/10 114/118/9
f 115/119/10 117/121/11 118/122/11 116/120/10
f 117/121/11 119/123/12 120/124/12 118/122/11
f 119/123/12 121/125/13 122/126/13 120/124/12
f 121/125/13 123/127/14 124/128/14 122/126/13
f 123/127/14 125/129/15 126/130/15 124/128/14
f 125/129/15 127/131/16 128/132/16 126/130/15
f 127/131/16 65/68/17 66/70/17 128/132/16
f 1/1/33 3/5/33 67/71/33 65/67/33
f 4/6/34 2/3/34 66/69/34 68/72/34
f 3/5/33 5/7/33 69/73/33 67/71/33
f 6/8/34 4/6/34 68/72/34 70/74/34
f 5/7/33 7/9/33 71/75/33 69/73/33
f 8/10/34 6/8/34 70/74/34 72/76/34
f 7/9/33 9/11/33 73/77/33 71/75/33
f 10/12/34 8/10/34 72/76/34 74/78/34
f 9/11/33 11/13/33 75/79/33 73/77/33
f 12/14/34 10/12/34 74/78/34 76/80/34
f 11/13/33 13/15/33 77/81/33 75/79/33
f 14/16/34 12/14/34 76/80/34 78/82/34
f 13/15/33 15/17/33 79/83/33 77/81/33
f 16/18/34 14/16/34 78/82/34 80/84/34
f 15/17/33 17/19/33 81/85/33 79/83/33
f 18/20/34 16/18/34 80/84/34 82/86/34
f 17/19/33 19/21/33 83/87/33 81/85/33
f 20/22/34 18/20/34 82/86/34 84/88/34
f 19/21/33 21/23/33 85/89/33 83/87/33
f 22/24/34 20/22/34 84/88/34 86/90/34
f 21/23/33 23/25/33 87/91/33 85/89/33
f 24/26/34 22/24/34 86/90/34 88/92/34
f 23/25/33 25/27/33 89/93/33 87/91/33
f 26/28/34 24/26/34 88/92/34 90/94/34
f 25/27/33 27/29/33 91/95/33 89/93/33
f 28/30/34 26/28/34 90/94/34 92/96/34
f 27/29/33 29/31/33 93/97/33 91/95/33
f 30/32/34 28/30/34 92/96/34 94/98/34
f 29/31/33 31/33/33 95/99/33 93/97/33
f 32/34/34 30/32/34 94/98/34 96/100/34
f 31/33/33 33/35/33 97/101/33 95/99/33
f 34/36/34 32/34/34 96/100/34 98/102/34
f 33/35/33 35/37/33 99/103/33 97/101/33
f 36/38/34 34/36/34 98/102/34 100/104/34
f 35/37/33 37/39/33 101/105/33 99/103/33
f 38/40/34 36/38/34 100/104/34 102/106/34
f 37/39/33 39/41/33 103/107/33 101/105/33
f 40/42/34 38/40/34 102/106/34 104/108/34
f 39/41/33 41/43/33 105/109/33 103/107/33
f 42/44/34 40/42/34 104/108/34 106/110/34
f 41/43/33 43/45/33 107/111/33 105/109/33
f 44/46/34 42/44/34 106/110/34 108/112/34
f 43/45/33 45/47/33 109/113/33 107/111/33
f 46/48/34 44/46/34 108/112/34 110/114/34
f 45/47/33 47/49/33 111/115/33 109/113/33
f 48/50/34 46/48/34 110/114/34 112/116/34
f 47/49/33 49/51/33 113/117/33 111/115/33
f 50/52/34 48/50/34 112/116/34 114/118/34
f 49/51/33 51/53/33 115/119/33 113/117/33
f 52/54/34 50/52/34 114/118/34 116/120/34
f 51/53/33 53/55/33 117/121/33 115/119/33
f 54/56/34 52/54/34 116/120/34 118/122/34
f 53/55/33 55/57/33 119/123/33 117/121/33
f 56/58/34 54/56/34 118/122/34 120/124/34
f 55/57/33 57/59/33 121/125/33 119/123/33
f 58/60/34 56/58/34 120/124/34 122/126/34
f 57/59/33 59/61/33 123/127/33 121/125/33
f 60/62/34 58/60/34 122/126/34 124/128/34
f 59/61/33 61/63/33 125/129/33 123/127/33
f 62/64/34 60/62/34 124/128/34 126/130/34
f 61/63/33 63/65/33 127/131/33 125/129/33
f 64/66/34 62/64/34 126/130/34 128/132/34
f 63/65/33 1/2/33 65/68/33 127/131/33
f 2/4/34 64/66/34 128/132/34 66/70/34
